#!OML:ASF I:\salsa\salsa 7_09\Patient 1\Session 1\dancermale.ASF
:FULLY-SPECIFIED
:DEGREES
1207
root 2.22882 16.9748 -5.98828 9.4307 61.2209 364.061
lowerback -6.89091 -3.43236 0.893244
upperback 0.238268 -4.61384 -0.707817
thorax 3.97347 -2.26298 -1.69719
lowerneck -6.25884 -9.81316 -8.19702
upperneck 21.0369 -12.2398 0.147447
head 8.08037 -6.36948 0.264875
rclavicle 5.1625e-014 -1.68967e-014
rhumerus -37.8415 35.4191 -29.2891
rradius 23.6774
rwrist 59.0218
rhand 0.970229 15.9487
rfingers 7.12502
rthumb 26.5194 -12.2152
lclavicle 5.1625e-014 -1.68967e-014
lhumerus -50.7738 -11.0156 90.5187
lradius 116.069
lwrist 14.5954
lhand -13.194 54.9483
lfingers 7.12502
lthumb 12.9062 444.529
rfemur -4.91782 2.85471 14.0052
rtibia 27.242
rfoot -27.2803 -19.6657
rtoes -12.188
lfemur -28.0487 9.23083 -6.3397
ltibia 30.7948
lfoot 1.18958 6.05209
ltoes 4.59705
1208
root 2.19038 16.9823 -5.95704 9.34763 60.9322 363.816
lowerback -6.86369 -3.40904 0.951035
upperback 0.230729 -4.58739 -0.706479
thorax 3.9468 -2.24916 -1.72301
lowerneck -6.16903 -10.1701 -8.53863
upperneck 20.8768 -12.8147 0.696947
head 8.09866 -6.62059 0.437491
rclavicle 4.75981e-014 -3.3048e-015
rhumerus -38.5983 36.6329 -30.5591
rradius 24.7554
rwrist 58.1223
rhand 2.16725 15.9679
rfingers 7.12502
rthumb 27.6645 -12.0178
lclavicle 4.75981e-014 -3.3048e-015
lhumerus -50.8617 -10.762 90.4359
lradius 116.101
lwrist 14.94
lhand -13.445 53.9253
lfingers 7.12502
lthumb 12.6642 443.521
rfemur -5.19953 2.97307 14.2342
rtibia 27.2103
rfoot -27.1544 -19.5278
rtoes -12.5178
lfemur -27.9374 8.70987 -5.97432
ltibia 30.3803
lfoot 1.43575 6.92961
ltoes 5.77052
1209
root 2.13882 16.9931 -5.92572 9.15739 60.6615 363.423
lowerback -6.79936 -3.38698 1.05918
upperback 0.23968 -4.56676 -0.702238
thorax 3.9126 -2.23739 -1.77248
lowerneck -6.03129 -10.4953 -8.78909
upperneck 20.5799 -13.3583 1.2355
head 8.05797 -6.85243 0.601676
rclavicle 2.47378e-014 1.53561e-014
rhumerus -39.704 38.2716 -32.3027
rradius 26.2355
rwrist 56.7507
rhand 3.74636 16.4277
rfingers 7.12502
rthumb 29.1735 -11.3061
lclavicle 2.47378e-014 1.53561e-014
lhumerus -50.9084 -10.6227 90.5071
lradius 116.055
lwrist 15.44
lhand -13.7895 52.8778
lfingers 7.12502
lthumb 12.3321 442.494
rfemur -5.58478 2.78601 14.4942
rtibia 27.2269
rfoot -26.9844 -19.1456
rtoes -12.8218
lfemur -27.9538 8.52312 -5.56026
ltibia 30.0035
lfoot 2.08082 7.61289
ltoes 6.75202
1210
root 2.07337 17.0057 -5.89295 8.95318 60.4131 362.967
lowerback -6.74046 -3.39581 1.11138
upperback 0.240575 -4.58373 -0.67012
thorax 3.87845 -2.24568 -1.76592
lowerneck -5.91205 -10.7917 -8.94682
upperneck 20.3137 -13.8454 1.6511
head 8.01599 -7.06207 0.716441
rclavicle -2.1624e-014 -2.5345e-015
rhumerus -41.054 40.1286 -34.3516
rradius 28.0153
rwrist 54.7698
rhand 5.36979 16.6842
rfingers 7.12502
rthumb 30.7226 -10.7698
lclavicle -2.1624e-014 -2.5345e-015
lhumerus -50.9547 -10.4915 90.7765
lradius 115.932
lwrist 15.8324
lhand -14.1024 52.0118
lfingers 7.12502
lthumb 12.0304 441.646
rfemur -6.06969 2.47919 14.8093
rtibia 27.2706
rfoot -26.7512 -18.7345
rtoes -13.1681
lfemur -28.1346 8.40542 -5.12036
ltibia 29.7588
lfoot 2.96227 8.35329
ltoes 7.27091
1211
root 1.99773 17.0207 -5.85517 8.86213 60.1235 362.599
lowerback -6.77167 -3.39736 1.07094
upperback 0.285966 -4.58223 -0.693024
thorax 3.94441 -2.2444 -1.7711
lowerneck -5.90657 -11.0968 -9.08679
upperneck 20.1956 -14.3557 2.14779
head 8.05279 -7.27277 0.839589
rclavicle 9.06582e-014 1.51076e-014
rhumerus -42.5786 41.7796 -36.5233
rradius 30.2044
rwrist 52.7983
rhand 7.38062 16.6086
rfingers 7.12502
rthumb 32.6379 -10.4673
lclavicle 9.06582e-014 1.51076e-014
lhumerus -50.8952 -10.4428 91.0869
lradius 115.773
lwrist 16.1311
lhand -14.2863 51.3703
lfingers 7.12502
lthumb 11.8531 441.015
rfemur -6.58859 2.24438 15.1366
rtibia 27.2292
rfoot -26.414 -18.3498
rtoes -13.5152
lfemur -28.4406 8.48279 -4.75017
ltibia 29.64
lfoot 3.86917 9.07344
ltoes 7.99434
1212
root 1.91524 17.0395 -5.81364 8.93157 59.7745 362.451
lowerback -6.74319 -3.37982 0.882748
upperback 0.349302 -4.54 -0.784448
thorax 4.00278 -2.22533 -1.75767
lowerneck -5.95643 -11.4088 -9.32896
upperneck 20.154 -14.9047 2.85845
head 8.15642 -7.48882 1.03308
rclavicle 3.28492e-014 6.55989e-015
rhumerus -44.3022 43.2909 -38.8209
rradius 32.7758
rwrist 51.1409
rhand 9.69543 16.3858
rfingers 7.12502
rthumb 34.8374 -10.208
lclavicle 3.28492e-014 6.55989e-015
lhumerus -50.8497 -10.4673 91.4786
lradius 115.658
lwrist 16.5861
lhand -14.5217 50.9716
lfingers 7.12502
lthumb 11.626 440.629
rfemur -7.01952 2.18162 15.3985
rtibia 27.0846
rfoot -26.1011 -17.9525
rtoes -13.579
lfemur -28.8361 8.88731 -4.54987
ltibia 29.6765
lfoot 4.96223 9.56211
ltoes 9.65857
1213
root 1.8276 17.0617 -5.77312 8.99844 59.3776 362.329
lowerback -6.58045 -3.34914 0.689368
upperback 0.382262 -4.47792 -0.907207
thorax 3.95257 -2.19788 -1.76112
lowerneck -5.9786 -11.7384 -9.39169
upperneck 19.9564 -15.4542 3.34754
head 8.17471 -7.71374 1.13503
rclavicle 9.95166e-015 -9.14409e-015
rhumerus -46.356 44.9887 -41.3907
rradius 35.6972
rwrist 49.5456
rhand 12.1541 16.2935
rfingers 7.12502
rthumb 37.1664 -9.72779
lclavicle 9.95166e-015 -9.14409e-015
lhumerus -50.9341 -10.5044 91.9487
lradius 115.572
lwrist 17.1471
lhand -14.8327 50.7049
lfingers 7.12502
lthumb 11.3261 440.379
rfemur -7.37152 2.33918 15.6832
rtibia 26.834
rfoot -25.8453 -17.5962
rtoes -13.2364
lfemur -29.3797 9.51824 -4.4071
ltibia 30.0499
lfoot 5.93077 10.0539
ltoes 11.4057
1214
root 1.73115 17.0852 -5.73567 8.94963 58.9416 362.062
lowerback -6.37609 -3.32817 0.553674
upperback 0.422007 -4.43382 -1.03477
thorax 3.88058 -2.17834 -1.80076
lowerneck -5.87998 -12.0458 -9.28886
upperneck 19.5018 -15.9729 3.73843
head 8.06329 -7.9276 1.20055
rclavicle 5.99833e-014 9.34288e-015
rhumerus -48.5317 46.7318 -44.1241
rradius 38.9065
rwrist 47.7655
rhand 14.8669 16.387
rfingers 7.12502
rthumb 39.7263 -8.92101
lclavicle 5.99833e-014 9.34288e-015
lhumerus -51.0719 -10.4378 92.3813
lradius 115.493
lwrist 17.6134
lhand -14.9461 50.4171
lfingers 7.12502
lthumb 11.2167 440.097
rfemur -7.72287 2.70083 16.0895
rtibia 26.468
rfoot -25.5291 -17.4015
rtoes -13.1264
lfemur -30.1597 10.4269 -4.24492
ltibia 30.9059
lfoot 6.5483 10.6741
ltoes 11.9885
1215
root 1.62626 17.111 -5.7032 8.619 58.358 361.555
lowerback -6.0144 -3.29807 0.45068
upperback 0.482416 -4.3839 -1.0966
thorax 3.74448 -2.15675 -1.78083
lowerneck -5.69402 -12.3045 -9.3948
upperneck 18.9344 -16.4491 4.39521
head 7.94036 -8.11807 1.39128
rclavicle -3.52594e-014 -1.15295e-014
rhumerus -50.642 48.4997 -46.7388
rradius 42.4661
rwrist 45.9505
rhand 17.9515 16.5569
rfingers 7.12502
rthumb 42.6222 -7.82122
lclavicle -3.52594e-014 -1.15295e-014
lhumerus -51.2282 -10.159 92.8318
lradius 115.409
lwrist 17.9218
lhand -14.9744 50.0624
lfingers 7.12502
lthumb 11.1895 439.744
rfemur -8.07505 3.12048 16.629
rtibia 26.1464
rfoot -25.1574 -17.1917
rtoes -13.238
lfemur -31.021 11.6444 -4.01178
ltibia 32.1978
lfoot 6.81813 11.4274
ltoes 13.2976
1216
root 1.52203 17.1356 -5.67498 8.07236 57.6365 360.911
lowerback -5.60777 -3.23024 0.425848
upperback 0.627827 -4.2907 -1.14246
thorax 3.66777 -2.11132 -1.78527
lowerneck -5.50943 -12.597 -9.5275
upperneck 18.2628 -16.9506 5.01992
head 7.7895 -8.32919 1.57361
rclavicle 3.35946e-014 1.39149e-014
rhumerus -52.8131 50.4073 -49.2789
rradius 46.4751
rwrist 44.4432
rhand 21.4905 16.8348
rfingers 7.12502
rthumb 45.9209 -6.29257
lclavicle 3.35946e-014 1.39149e-014
lhumerus -51.2619 -9.81945 93.2195
lradius 115.234
lwrist 18.1482
lhand -14.9752 49.6569
lfingers 7.12502
lthumb 11.1887 439.339
rfemur -8.3756 3.33821 17.1978
rtibia 25.9036
rfoot -24.73 -16.7259
rtoes -13.4333
lfemur -31.9348 13.1166 -3.79178
ltibia 34.0733
lfoot 6.49258 12.2144
ltoes 15.3796
1217
root 1.41709 17.1544 -5.65121 7.5784 56.8791 360.295
lowerback -5.26341 -3.15048 0.468241
upperback 0.810594 -4.18294 -1.25792
thorax 3.65505 -2.05546 -1.90381
lowerneck -5.31169 -12.9424 -9.57299
upperneck 17.5485 -17.5307 5.65926
head 7.62688 -8.57527 1.73965
rclavicle -3.40419e-014 8.34896e-015
rhumerus -55.0443 52.3166 -51.9156
rradius 50.6912
rwrist 43.0168
rhand 24.8701 17.0689
rfingers 7.12502
rthumb 49.0419 -4.64277
lclavicle -3.40419e-014 8.34896e-015
lhumerus -51.2687 -9.52656 93.4725
lradius 115.059
lwrist 18.4597
lhand -15.1333 49.3356
lfingers 7.12502
lthumb 11.0362 439.025
rfemur -8.7517 3.42675 17.7257
rtibia 25.7115
rfoot -24.2892 -16.0873
rtoes -13.5701
lfemur -33.1005 14.6852 -3.6865
ltibia 36.5681
lfoot 5.71281 12.0042
ltoes 15.3619
1218
root 1.31022 17.1701 -5.6379 7.27757 55.986 359.772
lowerback -4.92021 -3.04401 0.509653
upperback 0.932075 -4.0373 -1.42112
thorax 3.57796 -1.98092 -2.06639
lowerneck -5.13136 -13.3665 -9.67472
upperneck 16.9416 -18.2408 6.45218
head 7.53948 -8.87583 1.93792
rclavicle -1.36963e-013 6.36111e-015
rhumerus -57.2065 54.1347 -54.5108
rradius 54.9935
rwrist 41.6478
rhand 27.9321 17.1803
rfingers 7.12502
rthumb 51.8386 -3.02078
lclavicle -1.36963e-013 6.36111e-015
lhumerus -51.4029 -9.26385 93.6859
lradius 114.987
lwrist 18.871
lhand -15.741 49.1586
lfingers 7.12502
lthumb 10.45 438.879
rfemur -9.40824 3.53347 18.1516
rtibia 25.714
rfoot -23.9439 -15.33
rtoes -13.6603
lfemur -34.6043 16.4166 -3.90683
ltibia 40.4746
lfoot 3.90624 10.5837
ltoes 15.5062
1219
root 1.21224 17.1843 -5.63095 6.83932 54.949 359.129
lowerback -4.62221 -2.91612 0.648402
upperback 1.09715 -3.86976 -1.55149
thorax 3.56906 -1.89263 -2.25351
lowerneck -4.96052 -13.871 -9.83074
upperneck 16.3629 -19.043 7.20458
head 7.48024 -9.22896 2.11436
rclavicle -1.85864e-014 1.98785e-014
rhumerus -59.1795 55.9625 -56.8288
rradius 59.4293
rwrist 40.309
rhand 30.6832 17.1785
rfingers 7.12502
rthumb 54.3201 -1.44075
lclavicle -1.85864e-014 1.98785e-014
lhumerus -51.5373 -8.93024 93.8175
lradius 114.878
lwrist 18.961
lhand -16.2565 48.9104
lfingers 7.12502
lthumb 9.95271 438.655
rfemur -10.0508 3.66591 18.6394
rtibia 25.8281
rfoot -23.7274 -14.5498
rtoes -13.9974
lfemur -36.1477 18.0832 -4.18328
ltibia 44.647
lfoot 2.73019 9.71114
ltoes 13.7024
